Coordinates
version=1
nRows=16
nColumns=38
inDegrees=no

Units are S.I. units (second, meters, Newtons, ...)
If the header above contains a line with 'inDegrees', this indicates whether rotational values are in degrees (yes) or radians (no).

endheader
time	pelvis_tilt	pelvis_list	pelvis_rotation	pelvis_tx	pelvis_ty	pelvis_tz	hip_flexion_r	hip_adduction_r	hip_rotation_r	knee_angle_r	ankle_angle_r	subtalar_angle_r	mtp_angle_r	hip_flexion_l	hip_adduction_l	hip_rotation_l	knee_angle_l	ankle_angle_l	subtalar_angle_l	mtp_angle_l	lumbar_extension	lumbar_bending	lumbar_rotation	arm_flex_r	arm_add_r	arm_rot_r	elbow_flex_r	pro_sup_r	wrist_flex_r	wrist_dev_r	arm_flex_l	arm_add_l	arm_rot_l	elbow_flex_l	pro_sup_l	wrist_flex_l	wrist_dev_l
0	0.0552895	0.0121339	3.10294	-0.308727	0.971847	0.0350125	0.161865	-0.111675	-0.215578	0.242879	0.112979	0	0	0.177037	-0.0809227	-0.198899	0.268502	0.128552	0	0	-0.183372	0.0271129	0.0661158	-0.176322	-0.456688	1.3527	0.351903	0.114025	0	0	-0.0295399	-0.488628	1.48948	0.47845	0.0197434	0	0
0.00997519	0.0541398	0.0127109	3.10362	-0.307844	0.972107	0.0346623	0.15882	-0.109697	-0.217122	0.240168	0.111335	0	0	0.175544	-0.0824484	-0.19783	0.269259	0.128464	0	0	-0.183669	0.0279573	0.068521	-0.166242	-0.453651	1.35507	0.357009	0.111896	0	0	-0.0180468	-0.484278	1.49122	0.484751	0.0170917	0	0
0.0199504	0.0529854	0.0132865	3.10429	-0.306955	0.972361	0.0343127	0.155783	-0.107727	-0.21867	0.237479	0.109703	0	0	0.174021	-0.0839639	-0.196761	0.269967	0.12836	0	0	-0.183952	0.0287962	0.0709399	-0.156092	-0.450587	1.35754	0.362122	0.109767	0	0	-0.00653628	-0.479942	1.49292	0.49117	0.0144583	0	0
0.0299256	0.0518243	0.0138519	3.10495	-0.30605	0.972601	0.0339648	0.152773	-0.105781	-0.220219	0.23485	0.1081	0	0	0.172434	-0.0854494	-0.195698	0.270561	0.128213	0	0	-0.184198	0.0296177	0.0733418	-0.145725	-0.447454	1.3603	0.36725	0.107654	0	0	0.00499514	-0.475621	1.49451	0.497831	0.0119027	0	0
0.0399007	0.0506639	0.0143882	3.10559	-0.305115	0.972813	0.0336198	0.149831	-0.103889	-0.221765	0.232341	0.106558	0	0	0.170758	-0.0868756	-0.194649	0.270977	0.127999	0	0	-0.184367	0.0304033	0.0756423	-0.134937	-0.444192	1.36363	0.372398	0.105608	0	0	0.0165172	-0.471315	1.49587	0.504867	0.00954804	0	0
0.0498759	0.0495276	0.0148642	3.10619	-0.304132	0.972979	0.0332795	0.147026	-0.102095	-0.223305	0.230033	0.105118	0	0	0.169	-0.0882048	-0.193621	0.271168	0.127699	0	0	-0.184402	0.0311251	0.0777005	-0.123498	-0.44073	1.36783	0.377565	0.103731	0	0	0.027958	-0.467032	1.49678	0.512385	0.00760298	0	0
0.0598511	0.0484486	0.0152433	3.10678	-0.303083	0.973082	0.0329454	0.144444	-0.100449	-0.224835	0.228025	0.103828	0	0	0.167187	-0.0893984	-0.19262	0.271116	0.127301	0	0	-0.184238	0.0317552	0.0793261	-0.111164	-0.436993	1.37319	0.382751	0.102193	0	0	0.0392045	-0.462779	1.49695	0.520448	0.00638167	0	0
0.0698263	0.0474696	0.0154898	3.10734	-0.301949	0.973102	0.0326192	0.142188	-0.0990018	-0.226352	0.226429	0.102737	0	0	0.165379	-0.0904251	-0.191656	0.270836	0.126807	0	0	-0.183814	0.0322751	0.0802873	-0.0976892	-0.432915	1.37999	0.38796	0.101245	0	0	0.0501089	-0.45855	1.496	0.529058	0.0063194	0	0
0.0798015	0.0466267	0.0155788	3.10789	-0.300716	0.973023	0.0323027	0.140364	-0.0977936	-0.227848	0.225369	0.101893	0	0	0.163649	-0.0912702	-0.190743	0.270386	0.126235	0	0	-0.183086	0.0326763	0.0803969	-0.082905	-0.428447	1.3883	0.393211	0.101236	0	0	0.0605186	-0.454381	1.49347	0.538289	0.00798129	0	0
0.0897767	0.0459436	0.015499	3.10844	-0.299372	0.972831	0.0319972	0.139071	-0.0968538	-0.22931	0.224979	0.101343	0	0	0.162075	-0.0919368	-0.189905	0.269859	0.12562	0	0	-0.182043	0.032959	0.0795441	-0.066739	-0.423572	1.39802	0.398553	0.102611	0	0	0.0702958	-0.450352	1.48882	0.548297	0.0120595	0	0
0.0997519	0.0454298	0.0152493	3.10895	-0.297916	0.972521	0.0317038	0.138399	-0.0962021	-0.230714	0.225396	0.101131	0	0	0.160729	-0.0924397	-0.189168	0.269367	0.125005	0	0	-0.180704	0.0331268	0.0776977	-0.0492137	-0.418305	1.40879	0.404077	0.105912	0	0	0.0793307	-0.446562	1.48146	0.559283	0.0193531	0	0
0.109727	0.0450853	0.014836	3.10943	-0.296362	0.972102	0.031423	0.13843	-0.095851	-0.232031	0.22676	0.1013	0	0	0.15968	-0.0928015	-0.18856	0.269039	0.124442	0	0	-0.179123	0.0331835	0.0749075	-0.030446	-0.412698	1.42006	0.409908	0.11176	0	0	0.0875516	-0.443115	1.47078	0.571462	0.0307245	0	0
0.119702	0.0449089	0.0142707	3.10985	-0.294742	0.971601	0.0311544	0.139248	-0.0958083	-0.233226	0.229208	0.101887	0	0	0.159004	-0.0930505	-0.188105	0.26902	0.123994	0	0	-0.177375	0.0331327	0.0713039	-0.0106461	-0.406841	1.43108	0.416204	0.120818	0	0	0.0949401	-0.440099	1.45629	0.585036	0.0470238	0	0
0.129677	0.044907	0.0135695	3.11019	-0.293113	0.971071	0.0308964	0.140946	-0.096078	-0.234265	0.232881	0.10293	0	0	0.158796	-0.0932205	-0.18782	0.269476	0.123728	0	0	-0.175545	0.032977	0.067099	0.00988394	-0.400863	1.44089	0.423149	0.13373	0	0	0.101551	-0.437565	1.43765	0.600164	0.0689725	0	0
0.139653	0.0451026	0.0127505	3.11044	-0.291565	0.970595	0.0306458	0.143633	-0.0966618	-0.235116	0.237915	0.104462	0	0	0.159182	-0.0933511	-0.187719	0.2706	0.123727	0	0	-0.173719	0.0327163	0.0625903	0.0307531	-0.394928	1.44844	0.43095	0.151025	0	0	0.107534	-0.435506	1.41487	0.616931	0.0969987	0	0
0.149628	0.045538	0.0118299	3.11056	-0.290224	0.970298	0.0303973	0.147434	-0.0975629	-0.235749	0.244437	0.106515	0	0	0.160316	-0.0934825	-0.187811	0.272599	0.124075	0	0	-0.171968	0.0323412	0.0581615	0.0514875	-0.389232	1.45257	0.439825	0.173074	0	0	0.113167	-0.43384	1.38844	0.635307	0.131017	0	0
